# xmcd
#
# Track frame offsets: 
#        182
#        9465
#        25810
#        39842
#        57817
#        68460
#        81770
#        94865
#        110625
#        126552
#
# Disc length: 1858 seconds
#
# Revision: 3
# Processed by: cddbd v1.5.2PL0 Copyright (c) Steve Scherf et al.
# Submitted via: ExactAudioCopy v1.0b6
#
DISCID=7707400a
DTITLE=Bugs Bunny and Co - The Looney West
DYEAR=1996
DGENRE=Cowboy Songs
TTITLE0=Bugs Bunny and Herb Jefferies - Back In The Saddle Again
TTITLE1=Foghorn Leghorn and Michael Martin Murphy - Cowboy Logic
TTITLE2=Don Edwards and Yosemite Sam - Cattle Call
TTITLE3=Daffy Duck and Sons Of The San Joaquin - Cool Water
TTITLE4=Pepe Le Pew and Michael Martin Murphy - Yellow Rose Of Texas
TTITLE5=Jeff Foxworthy and Yosemite Sam - You Might Be A Cowboy
TTITLE6=Foghorn Leghorn - The Old Chisholm trail
TTITLE7=Michael Martin Murphy and Daffy Duck - Home On The Range
TTITLE8=Rex Allen Jr. and Sylvester - The Last Of The Silver Screen Co
TTITLE8=wboys
TTITLE9=Porky Pig and Yosemite Sam - Happy Trails
EXTD=YEAR: 1996
EXTT0=
EXTT1=
EXTT2=
EXTT3=
EXTT4=
EXTT5=
EXTT6=
EXTT7=
EXTT8=
EXTT9=
PLAYORDER=
